<svg xmlns="http://www.w3.org/2000/svg" viewBox="0 0 447.85 181.66"><title>logo</title><path d="M131.26 146.79h19.62c7.32-4.6 14.93-11.9 22.46-20.33v-13.1c-12.37 12.78-25.48 24.78-42.08 33.43z" fill="#6d3097"/><path d="M223.93 65.32c-19.62 13.49-34.46 31.41-50.59 48v13.1c19.42-21.69 38.36-50.95 50.59-61.1z" fill="#75b23b"/><path d="M223.93 65.32c-19.62 13.49-34.46 31.41-50.59 48v13.1c19.42-21.69 38.36-50.95 50.59-61.1z" fill="#6d3097"/><path d="M441.79 118.01c-7.83 13.48-14.68 21-19.25 21-2.18 0-4-1.85.87-13.93l13.36-33.24-17.47 3.66.12-.28a15.9 15.9 0 0 0-12.89-6.8c-7 0-13.51 3.92-17.44 9.14-4.26 5.66-6.58 14.36-6.91 15.67-2.68 10.87 6.16 18.38 16 19.9-.48.55-1 1-1.4 1.42a11.26 11.26 0 0 1-15.53.32c-4.55-4-5.28-11.22-5.35-12-7.49 9.92-17.34 15.16-26.74 15.16-13.7 0-10.72-11.12-10.66-11.31 20.12 2.61 28.82-3.7 33.39-13.6 7-15.67-3.48-23.72-15.78-23.72-22 0-33 22.83-34.17 37.55a52 52 0 0 1-18.76 16.19l21.27-52.19-20.25 7.36a13.12 13.12 0 0 0-12.94-8.79c-14 0-22.89 15.34-27.14 28.83-7.54 12.72-14.12 19.79-18.54 19.79-2.18 0-4-1.85.87-13.93l10.7-26.62c-1.69.07-3.54.3-5.49.56a61.52 61.52 0 0 1-8.17.72 15.37 15.37 0 0 1-3.9-.47l-8.63 21.38c-6.53 11-10.77 16.86-15 16.86-2.18 0-3.7-1.52.76-12.4l13.37-33.25h-17.48l-10.88 26.87c-7.19 12-16.06 20-20.82 20-2.94 0-3.26-3.16-3.26-5.33a56.9 56.9 0 0 1 .89-8.37c.23-1.43.48-2.91.73-4.41.43-1 1.7-16.64 1.7-16.64 0-8.66-3.72-13.86-11.75-13.86-13.16 0-19.15 14.14-27.09 27.64 0 0 .05.09.07.14l-.13.22c-7.54 12.57-14.54 18.89-23.25 22.8 0 0-.06 0 0 0 3.77-4.39 14.61-21.55 14.61-35.49 0-7.83-3.48-15.12-12.51-15.12-8 0-13.75 5.91-13.92 6.09l-15.3-4.66-10.92 27c-2.58 4.13-7.73 10.66-17 10.18 8.25-14.46 12.81-31.74 12.81-45 0-19.37-10.45-26.33-21.11-26.33-7.83 0-13.81 3.59-18.17 9-24.15 9.9-37.2 42.87-37.2 63.43 0 14.69 6.64 28 23.94 28 13.49 0 25-8.37 33.83-20.11a23.51 23.51 0 0 0 16.06-2.37s.05 0 0 0l-13.82 34.18h17.21l22.84-56.45c3.48-5 8.27-9.14 12.29-9.14 2.28 0 3.37 1.41 3.37 4.57 0 9.9-10.66 31.34-16.65 31.34-1.86 0-3.42-2.06-3.58-2.27l-5.51 5.07c.17.28 4.21 6.74 17.62 6.74 19 0 32.21-12.84 40.36-27.31 4.79-8.38 10.44-19.8 14.8-19.8 1.31 0 1.52 1 1.52 2.94 0 4.38-1.15 11.38-2 17.81l-1.06 14.2h.05c1.21 8.44 6.32 12.12 13.48 12.12 8.07 0 15.59-4.69 22.05-11.49.54 8 5.8 11.47 12.27 11.47 6.94 0 12.59-3.9 17.59-9.74h.05c1.22 6.81 6.32 9.73 12.28 9.73 8 0 15.39-5.3 21.86-13h.05c.48 7.28 4.67 12.95 12.14 12.95 7 0 12.48-6.29 13.37-7.35h.05l-2.86 7.2c-2.4 1.31-9 4.13-12.5 5.76-5.87 2.83-12.29 7.72-12.4 15.34 0 6.31 4.24 12 13.49 12 13.06 0 19.58-10.88 24-21.65.76-2.17 2.38-6.18 2.39-6.2 8.56-4 16.58-8.38 24.29-16.65 2.69 7.25 9.64 11.53 21.13 11.53a41.94 41.94 0 0 0 26.24-9.08c2.24 5.47 8.42 10 16.13 9.76 9.27-.24 16.55-8.3 17.15-9h.05a10.72 10.72 0 0 0 1.49 3.56c2.19 3.93 6.25 5.69 10.86 5.69 12.4 0 23.38-12.72 31.65-27.29a8.48 8.48 0 0 0-5.89-4.2zm-86.57-14.8c3.7 0 3 2.94 1.63 6.2-2.17 5.11-5.43 9.67-15.41 7.95.24-.68 5.92-14.14 13.78-14.14zm-312.48 27c-5.44 7.93-11.63 13.47-17.72 13.47-6.53 0-8.92-6.42-8.92-13.49 0-10.63 5.62-26.55 12-38.08h.06c-1.33 26.64 14 37.68 14.57 38 .03.09.02.1.01.12zm6.35-10.51h-.05c-4.55-5.77-7.26-14.13-7.26-23.79 0-14.14 5.88-21.87 11.64-21.87 4 0 6.42 3.7 6.42 10.12 0 8.28-4.31 22.98-10.75 35.55zm220.83 51.51a2.57 2.57 0 0 1-2.72-2.72c0-2.18 2.18-4 4.35-5.33 2.59-1.73 5-2.6 8.08-4.42-3.64 9.88-7.32 12.48-9.71 12.48zm29.48-61.58l-7.07 17.4s-4.91 7.83-10.88 7.83c-2.18 0-3.48-1.2-3.48-4 0-7 8.05-27.31 16.65-27.31 4.65 0 4.79 6 4.79 6.09zm108.8 10a5.7 5.7 0 0 1-2.93.61c-3.16 0-8.95-.11-5.35-9.79a23.44 23.44 0 0 1 2.79-5.44c1.39-1.85 2.92-2.72 4.66-2.72a12.93 12.93 0 0 1 6.82 2.45z" fill="#6d3097"/><path d="M226.67 64.2c-2.17 6.17-.88 13.35 2.09 19.14 12 20.83 35.06-4.56 40.92 15.48.72-8.43-2.91-16.16-14.21-22.64-8.79-5.99-18.58-10.83-28.8-11.98zm-5.2-.55a22.89 22.89 0 0 1-18.16 2.36c-22.76-7.7-2.33-35.28-23.14-37.14 8.13-2.34 16.42-.29 25 9.55 7.56 7.47 13.19 15.43 16.3 25.23z" fill="#b11f8c" fill-rule="evenodd"/><path d="M221.47 63.65c-5.32 2.08-10.9 3.1-17.15 1.31-22.76-7.7-2.31-34.25-23.12-36.11 8.13-2.34 16.39-1.32 24.95 8.52 7.58 7.47 12.21 16.48 15.32 26.28zm5.2.55c-1 5.62-.92 11.29 2 17.08 12 20.83 35.06-4.56 40.92 15.48.72-8.43-2.91-16.16-14.21-22.64-8.75-5.98-18.49-8.77-28.71-9.92z" fill="#e5a1c8" fill-rule="evenodd"/><path d="M266.62 6.9s.26 17-3.1 24.3c-4.3 9.37-9.27 16.22-26.18 25.12a30.13 30.13 0 0 1-6.44 2.67s.78-14.82 5-24.23c4.14-9.23 10.13-17.69 18.41-22s12.31-5.86 12.31-5.86z" fill="#e5a1c8"/><path d="M286.21 35.38s-11 1-18.32 7.63-6.58 10.41-7.92 14.37-3.14 10.93-10.31 15.5-13.26 2.83-16.42-.75c-3.75-4.25-2.85-11-2.85-11s10.19-3.08 15.3-6.61 18.68-15.9 25.28-18 15.24-1.14 15.24-1.14zM239.65 0s1.17 11-3.91 19.45-8.92 8.49-12.55 10.57-10.11 5.21-13.19 13.14-.19 13.55 3.94 16c4.9 2.85 11.39.64 11.39.64s1-10.59 3.5-16.3 12-21.42 12.68-28.3S239.65 0 239.65 0z" fill="#e5a1c8"/><path d="M218.95 58.37v-.09c-.74-2.85-2.33-4.25-3.62-6.19a1.83 1.83 0 0 0-.38-.38 11.92 11.92 0 0 1-2.32-2.46c.74.67 1.51 1.33 2.27 2a3.33 3.33 0 0 1 .68.55 1.15 1.15 0 0 1 .32-.17 3.22 3.22 0 0 1 1 .88c.8 1 1.46 2.34 2.42 3a25.54 25.54 0 0 0-1.59-5.23 6.34 6.34 0 0 1-.32-1.25 3.35 3.35 0 0 1 .18.31 32.89 32.89 0 0 1 1.36 3.42.85.85 0 0 0 .14.28 1.94 1.94 0 0 1 .28.56c.3.84.35 2.14.95 2.39a2.59 2.59 0 0 0 .1-1.31c0-.23-.06-.45-.07-.68-.14-1.17-.24-2.27-.39-3.26a11.72 11.72 0 0 0-.64-2.6c-.47-1.34-1.05-2.54-1.5-3.8a11.08 11.08 0 0 1 1.53 3v-.05a.16.16 0 0 0 .05.08c.27.85.5 1.8.74 2.75a28.5 28.5 0 0 1 .6 3.56.28.28 0 0 0 .34-.22 4.49 4.49 0 0 0 .13-1.18 18 18 0 0 0 .28-4.82 41.73 41.73 0 0 0-1.62-6.11 16.68 16.68 0 0 1 2 6.54c0 .32.1.67.12 1 .06.54.1 1 .16 1.55-.09.55-.23 1.17-.36 1.79a.29.29 0 0 1 0 .15 2.23 2.23 0 0 0-.07.4c0 .11 0 .2-.07.31a7.76 7.76 0 0 0-.07 1c-.06.35.05.74 0 1.08-.06 1.11-.76 2-.33 3.1a2.57 2.57 0 0 0 1.16-1.37 10 10 0 0 0 .94-3.13 26.67 26.67 0 0 0 .31-3.84 3.2 3.2 0 0 0 .26-1.27 1 1 0 0 1 .26-.61.14.14 0 0 1 .1-.09c-.11 2.26-.4 4.3-.58 6.49a1.56 1.56 0 0 0-.15 1.22c-.24.51-.46 1-.5 1.1a9.43 9.43 0 0 0-1.38 2.54c.61.2 1.05-.53 1.31-1.14v-.06a3.48 3.48 0 0 0 .26-.94c0-.16.36-1 .61-1.75a2.65 2.65 0 0 0 .17-.54 2 2 0 0 0 .12-.54c.12-.56.32-1.16.44-1.72 0-.19 0-.49.08-.83.2-1.82.45-5.55.42-6.62 0-1.49-.85-6.21-1-6.82a20.17 20.17 0 0 0-1.24-4.64 11.1 11.1 0 0 0-1.15-1.56 9.22 9.22 0 0 0-2.95-2.7 5.26 5.26 0 0 0-1.82-.66 10.23 10.23 0 0 0-3.11-.65c-.6.07-2 .62-2 1.29s.87 1.66.34 2.33a.48.48 0 0 1-.38 0 7.41 7.41 0 0 0-1.18-.7 4.08 4.08 0 0 0-1.32.58 3.65 3.65 0 0 0-1 .93v.11a1.93 1.93 0 0 0-.44.63 1.86 1.86 0 0 0-.18.25 11 11 0 0 0-.57 1.15 1.61 1.61 0 0 0-.1.32 1.37 1.37 0 0 0-.13.42v.2a21.35 21.35 0 0 0 .35 8.61c.14.61.38 1.23.49 1.76a1.35 1.35 0 0 1 .06.31v.13a15.48 15.48 0 0 0 .69 2.77 13.13 13.13 0 0 0 2.68 4.73c.69.93 3 2.53 3.53 3.34a25.1 25.1 0 0 0 2.93 2.19 2.55 2.55 0 0 1 1.06.37.14.14 0 0 0 .08.07 1.85 1.85 0 0 0 .63.15c.31-.36-.14-1.33-.4-1.71z" fill="#fce9ec"/><path d="M231.71 60.97c.4-.13.83-.33 1.59-.57a17.63 17.63 0 0 0 3.67-1.17c.51-.31.87-.88 1.33-1.17s.91-.44 1.27-.68c1.45-1 2.45-3.12 4.09-4.84 1.46-1.44 2.63-2.74 4.33-4.62.87-.89 1.54-2 2.41-2.9.43-.54 2.81-3.36 3.57-4.58a13.41 13.41 0 0 0 2.15-5 8.42 8.42 0 0 0-.48-4.37c-.5-1.63-.66-3.75-1.25-5-.88-2.11-3.6-3.07-5.06-3.1-.39 0-2.63.13-3.1.23-.29.14-1.55.68-1.77.85-1 .68-1.28 2.15-2.34 2.46a.84.84 0 0 1-.17-.32c-.8.92-1.65 1.86-2.64 2.87-.6.69-1.2 1.38-1.78 2a5.88 5.88 0 0 0 1.11-1c-.16 1-1.47 1.91-2.31 2.71-.57.61-1 1.48-1.67 2.14-.83 1-1.83 1.82-2.54 2.69a2.09 2.09 0 0 1-.35.44 22.5 22.5 0 0 0-4.21 7.76c-.37 1.52-.66 3-1.07 4.39a9.43 9.43 0 0 0-.7 4.34c1.48-1.38 1.58-3.7 2.17-5.58.64-2 1.81-3.67 2.37-5.81a6.28 6.28 0 0 0 .67-1c.63-1.1 1.07-2.25 1.8-3.4-.32 1-.79 2.11-1.22 3.12-.49 1.17-1 2.37-1.51 3.6a40.64 40.64 0 0 0-1.7 4.49 36.08 36.08 0 0 1-1.13 3.74 11 11 0 0 0-1 3.7v.06a1.22 1.22 0 0 1 .28 0c.89-.16 1.83-1.35 2.48-2.2a9.85 9.85 0 0 0 .95-1.79 2 2 0 0 0 .24-.78l.17-.48a.32.32 0 0 0 .11-.18c.78-.64.93-1.52 1.63-2.25a1.72 1.72 0 0 1 .07 1 1.68 1.68 0 0 0-.14.4c-.27.66-.67 1.32-1 1.93a28.89 28.89 0 0 1-1.72 3.11l-.09.1a3.54 3.54 0 0 1-.26.39l-1.08 1.59c1.23 1 2.89-1 4.15-.4-1 1.93-3.06 1-4.16 2a2.73 2.73 0 0 0 .95.81 5.49 5.49 0 0 0 1.63.22 4.29 4.29 0 0 0 .58.06h.25zm-2.18-4.89zm1.69-12.21a12.2 12.2 0 0 1-.79 1.11c.47-.69.77-1.11.77-1.11zm2 6.18l.32-.15-.32.15zm0 0l-.09.24.09-.24zm-.19.5l-.06.16zm-.24.58l-.07.16zm-.32.7l-.07.15zm-.39.76l-.09.17zm-.48.81l-.11.19zm-.58.86l-.13.18zm24.74 25.33a1.39 1.39 0 0 0 .43-.1 1.59 1.59 0 0 0 .32-.07 10.94 10.94 0 0 0 1.19-.49 1.85 1.85 0 0 0 .26-.16 1.93 1.93 0 0 0 .66-.4h.11a3.65 3.65 0 0 0 1-.94 4.08 4.08 0 0 0 .66-1.28 7.39 7.39 0 0 0-.62-1.23.48.48 0 0 1 0-.39c.7-.48 1.53.48 2.3.5s1.31-1.3 1.42-1.89a10.22 10.22 0 0 0-.44-3.15 5.26 5.26 0 0 0-.52-1.85 9.22 9.22 0 0 0-2.5-3.12 11.15 11.15 0 0 0-1.48-1.25 20.18 20.18 0 0 0-4.55-1.55c-.6-.18-5.25-1.29-6.73-1.44-1.07-.1-4.81-.1-6.64 0h-.83c-.57.08-1.18.24-1.75.33s-1.36.12-1.46.55a1.52 1.52 0 0 0 1.28 0c2.2 0 4.26-.19 6.52-.15a.14.14 0 0 1-.09.09 1 1 0 0 1-.63.22 3.2 3.2 0 0 0-1.29.17 26.63 26.63 0 0 0-3.85.05 10 10 0 0 0-3.19.73 2.57 2.57 0 0 0-1.44 1.06c1 .5 2-.14 3.11-.12.34 0 .72.13 1.07.1a7.67 7.67 0 0 0 1 0h.31a2.21 2.21 0 0 0 .41 0 .29.29 0 0 1 .15 0c.63-.09 1.25-.19 1.81-.24l1.53.26c.32 0 .67.14 1 .19a16.68 16.68 0 0 1 6.39 2.43 41.74 41.74 0 0 0-6-2 18 18 0 0 0-4.83 0 4.49 4.49 0 0 0-1.19.05.28.28 0 0 0-.24.32 28.49 28.49 0 0 1 3.51.84c.93.3 1.87.6 2.69.92h.13-.05a11.07 11.07 0 0 1 2.83 1.56c-1.22-.53-2.38-1.19-3.69-1.75a11.71 11.71 0 0 0-2.55-.81c-1-.22-2.06-.38-3.22-.61-.23 0-.44-.09-.68-.11a2.59 2.59 0 0 0-1.31 0c.21.61 1.51.76 2.32 1.11a2 2 0 0 1 .54.32.85.85 0 0 0 .27.16 32.93 32.93 0 0 1 3.32 1.59l.3.2a6.32 6.32 0 0 1-1.23-.4 25.55 25.55 0 0 0-5.11-1.94c.62 1 1.94 1.76 2.86 2.62a3.23 3.23 0 0 1 .81 1 1.15 1.15 0 0 1-.19.31 3.33 3.33 0 0 1 .51.72c.66.8 1.27 1.62 1.89 2.4a11.93 11.93 0 0 1-2.29-2.48 1.82 1.82 0 0 0-.35-.41c-1.85-1.41-3.14-3.1-5.93-4h-.08c-.36-.28-1.29-.8-1.73-.49a1.84 1.84 0 0 0 .11.64.14.14 0 0 0 .06.08 2.54 2.54 0 0 1 .3 1.08 25.15 25.15 0 0 0 2 3.07c.77.56 2.21 3 3.09 3.74a13.13 13.13 0 0 0 4.54 3 15.45 15.45 0 0 0 2.72.87h.13a1.33 1.33 0 0 1 .31.08c.51.15 1.12.43 1.72.61a21.34 21.34 0 0 0 8.56.93c.12-.06.14-.08.23-.08zm-21-10.72a24.84 24.84 0 0 0 2.45 2.47 25.37 25.37 0 0 1-2.48-2.47zm-.59-.7l.57.68zm22.33 9z" fill="#fce9ec" opacity=".79"/><path d="M215.34 63.14a.55.55 0 0 0-.11-.15 4.69 4.69 0 0 1 1.3.82.16.16 0 0 1 .11.05 1.17 1.17 0 0 0 .2-1.06c-.53-.81-1.51-.75-2.25-1.1-.31-.17-.55-.66-.82-.37a3.21 3.21 0 0 0 1.13 1.77 1.44 1.44 0 0 1-.16-.23zm-.5-2.27a6.89 6.89 0 0 0 1.19.43.15.15 0 0 1-.08-.07 2.74 2.74 0 0 0-1.11-.36zm1.76 3.82a1.11 1.11 0 0 0-.22-.2 1.68 1.68 0 0 1-.29-.23 1.22 1.22 0 0 0 1.67 1 1.78 1.78 0 0 1-1.16-.57zm1.29-1.35a1.06 1.06 0 0 0-.08.26.36.36 0 0 0 .08-.26zm-.12.37a.11.11 0 0 1 0 .1 1.32 1.32 0 0 1 .24.15.21.21 0 0 1-.07-.12zm.6-.82a1.38 1.38 0 0 0-.46.4 1.38 1.38 0 0 0 .46-.4zm-1.44 6.25zm11.24-1.17a.56.56 0 0 1 .15.11 4.4 4.4 0 0 0-.77-1.3.15.15 0 0 0 0-.11 1.31 1.31 0 0 1 1.12-.12c.81.56.68 1.49 1 2.23.16.31.65.57.34.81a3.37 3.37 0 0 1-1.77-1.2 1.47 1.47 0 0 0 .23.17zm2.3.62a6.21 6.21 0 0 1-.37-1.16.14.14 0 0 0 .06.08 2.46 2.46 0 0 1 .31 1.08zm-3.86-1.94a1.09 1.09 0 0 1 .2.23 1.63 1.63 0 0 0 .22.29c-.93-.28-1.32-1.2-.9-1.66a1.63 1.63 0 0 0 .48 1.14zm1.48-1.13a1.2 1.2 0 0 1-.28.06.4.4 0 0 1 .28-.06zm-.39.09a.13.13 0 0 0-.1 0 1.29 1.29 0 0 0-.14-.24.22.22 0 0 0 .12.07zm.9-.47a1.37 1.37 0 0 1-.45.42 1.37 1.37 0 0 1 .45-.42zm-6.58.91zm26.94-13.53v.05c-.04-.06-.04-.06 0-.05z" fill="#74001d" fill-rule="evenodd" opacity=".79"/><path d="M251.1 55.57a1.1 1.1 0 0 1 .18-.23.35.35 0 0 0 .08-.2 2.23 2.23 0 0 0 .06-1.14 2.47 2.47 0 0 0 .16-.62.94.94 0 0 0-.05-.24v-.16c.14-.79-.63-1.85-1.19-1.39a1.28 1.28 0 0 0-.29.26c-.14 0-.25 0-.19.23a.42.42 0 0 1 .19 0 2.63 2.63 0 0 1 0 .34v.21a.15.15 0 0 0-.2.06.59.59 0 0 0-.45.39 1.39 1.39 0 0 1-.12.41 7.35 7.35 0 0 1-.36-.91 4 4 0 0 0-.14.79 2.66 2.66 0 0 0 .21 1 7.06 7.06 0 0 1-1.94.41 4.78 4.78 0 0 0-3.06 1.57c-1.07.13-2.51 1.16-3.72 1.8a39 39 0 0 0-4.3 1.82 13.51 13.51 0 0 1 2.61-.14c.63-.29 1.34-.5 2-.78 1.53-.79 2.34-1.58 3.85-2a1.7 1.7 0 0 1 .37-.46 4.62 4.62 0 0 1 .53-.53 7 7 0 0 1 .8-.47c.35-.08.72-.27 1.07-.35a6.48 6.48 0 0 0 1.32-.45 1.94 1.94 0 0 0 .58-.3v.07a5.12 5.12 0 0 0 .08.62 1 1 0 0 0 1.8.38zm-.24-1c-.18.45-.64.61-.76.25a.59.59 0 0 0 0-.17l.11-.08.07.13h.15v-.05h.12a.81.81 0 0 0 .33 0zm-.33-2.43a.17.17 0 0 0 0 .17 1.06 1.06 0 0 0-.2-.21zm-21 15.67l-.92-.22h-.18zm16.53-.42a3.4 3.4 0 0 1-.84.13 10.73 10.73 0 0 1-3.69 0c-2 .13-4 .41-5.85.57-.93-.17-2-.32-3-.56a25.73 25.73 0 0 0 3.85-.39.93.93 0 0 1 .39 0 19 19 0 0 1 3.1-.46c.49 0 1.08-.12 1.66-.2a8.16 8.16 0 0 0 2.26.22 20.09 20.09 0 0 0 6.19-1.42 13 13 0 0 1 2.55-.59 4.16 4.16 0 0 0 .67-.28 4.55 4.55 0 0 0 1.52-1v-.05c.09 0 .1 0 .11-.08a2.59 2.59 0 0 1 .91-.77.2.2 0 0 0 0 .12c-.06.09-.21.11-.33.25a2 2 0 0 1-.19.28 6.27 6.27 0 0 1-2.62 2.06c-1.79.21-4.04 1.54-6.69 2.17zm-19.04-.91a4.5 4.5 0 0 0 .38.26.21.21 0 0 1-.15 0l-.27-.07v-.03l-.28-.07a.28.28 0 0 1 .12-.14z" fill="#74001d" fill-rule="evenodd" opacity=".79"/><path d="M226.53 66.52c-.14 0-.17-.1-.26-.12a1.47 1.47 0 0 1 .52 0v.16zm-.79-.07h.14zm31.66-5.95a3 3 0 0 0 0-.77 1.05 1.05 0 0 0-1 .63h-.19c0 .28 0 .6.07 1.22a2 2 0 0 0-.13.74.37.37 0 0 1 .21.16c-.14-.31-.14-.53-.07-.4a1.14 1.14 0 0 0 .72.28.54.54 0 0 0 .16-.35 4.51 4.51 0 0 0 .29-1.08.75.75 0 0 0-.26-.45c-.08-.07.07-.09.24 0zm-.24.27h-.09.1v.05zm-3.63 5.49l-.19-.54a3.35 3.35 0 0 0-.34-.25 1.22 1.22 0 0 0-1.2 0 1.54 1.54 0 0 1-.24.27 2.49 2.49 0 0 0-.55 2.51l.07.13a1.12 1.12 0 0 0 1 0 .89.89 0 0 0 .4-.34 1.54 1.54 0 0 0 .4-1.72c0-.17.32.08.48.5a1.62 1.62 0 0 0 0-.6c0-.06 0 0 .18.1zm-2.33.43v-.06c-.06-.05-.06-.05-.03.06zm-20.98.4a18.31 18.31 0 0 0-1.81-.33 9 9 0 0 0-1.34-.54c0-.1.06-.09.06-.09.55.13 1.31.42 2.4.74.19.04.46.16.69.22zm20.78 1.6v-.05a.05.05 0 0 1 0 .05zm-24.52-2.4c-.05-.23.15-.29.42-.23l-.11.08c-.18 0-.26-.06-.31.15zm13.05 3.16c-.53 0-1.1 0-1.59.06l-1.41-.17a9.81 9.81 0 0 1-1.68-.24l-1.84-.44a12.73 12.73 0 0 0 3.71.13 17.28 17.28 0 0 0 1.9.35s-.49-.23-1.42-.62a1.7 1.7 0 0 1 .52 0h.76c0-.1.06-.09.06-.09a5.66 5.66 0 0 0 1.06 0c.88.43 1.79.71 2.6 1a12 12 0 0 0 6.67.18 7.36 7.36 0 0 0 1.93-.91.14.14 0 0 1 .12.14 6.62 6.62 0 0 1-2 1.29l-.87.29a10.87 10.87 0 0 1-3 .31 13.83 13.83 0 0 1-5.52-1.28zm6.87-10.07a.56.56 0 0 0-.54-.19.94.94 0 0 0-.42.23c-.77 0-.86 1.06-.75 1.52 0 .05.07.13.06.18s1.05.53 1.35-.06c.6-.13.12-1.18.14-1.34s0-.07 0-.06v.06a1.42 1.42 0 0 1 .59.47 1.69 1.69 0 0 0-.43-.82zm-.66 1.54c0 .06-.1 0-.11.08a.23.23 0 0 0 0-.17c0-.05 0-.05.06 0a.13.13 0 0 1 .12.14zm.26-.1a.24.24 0 0 1 0-.17.05.05 0 0 0 0 .06z" fill="#74001d" fill-rule="evenodd" opacity=".79"/><path d="M257.33 54.49a.92.92 0 0 0 .14.8 2.82 2.82 0 0 0-.5.1 3.68 3.68 0 0 0-.94.16c-.4.07-.86.23-1.35.33l-.35.08c-1.42.15-3.23.1-5.22.28-.25.05-.54.09-.85.18a2.82 2.82 0 0 0-1 .15l-1.19.21c-3.19 1.21-5.92 3.36-7.94 3.69a4.23 4.23 0 0 0-1.16.6h-.42a7.46 7.46 0 0 0-1.1 0 .74.74 0 0 0 .3-.09 15.21 15.21 0 0 0-1.46.42c-.5.1-.94.16-1.34.28-.59.35-1.06.57-1.39.82a4.42 4.42 0 0 1-.84.4.82.82 0 0 0 .5-.1c.31-.15.77-.31 1.35-.56a7.82 7.82 0 0 0-1 .74c-1.29.79-2.28 1.21-2.18 1.23a13.16 13.16 0 0 0 2.39-.8 8.06 8.06 0 0 1 4.32-1.38 2.85 2.85 0 0 1-.65.94c.06.18.3-.37.89-.94a6.14 6.14 0 0 1 1 .18c2.43.31 4.57-.38 6.09-.29a4.05 4.05 0 0 0 1.43-.48.71.71 0 0 1 .16.2 1.3 1.3 0 0 0 .93.94l.23.06a1.21 1.21 0 0 0 .85-1 .45.45 0 0 1-.05-.23 3.77 3.77 0 0 1-.28.48 1.16 1.16 0 0 1-1.89-.67 10.62 10.62 0 0 1-1.08.18.59.59 0 0 0-.29 0 9.69 9.69 0 0 0-1.12-.16c-.76 0-1.59.06-2.5.06a5.65 5.65 0 0 1-.82 0c-.47-.06-.95-.06-1.41-.12.26-.1.51-.21.82-.3 2.28-.16 4.85-2 8.09-3.16 3-.81 6.24-.86 8.38-1.34a17.82 17.82 0 0 1 2.76-1 1.57 1.57 0 0 0 .78.46.75.75 0 0 0 .64.21.68.68 0 0 1-.43-.27c-.45-.16-.72-.78-.55-.68a.82.82 0 0 0 1.11-.34c.14-.79.1-1.08-.06-.73-.07-.13-.26-.45.33-.52-.09 0-.17-.15-.26-.17-.6-.37-.93-.17-1.07.07a1.25 1.25 0 0 0-.29.26.2.2 0 0 0-.07.15.71.71 0 0 0-.4.62zm.45.16h.76-.76zm.93-.38v.11a.42.42 0 0 1-.07.15.21.21 0 0 0 0-.11.28.28 0 0 1 .07-.15zm-1 .46v-.05.05zm-9.03-10.08c-.02.05-.02.05 0 0z" fill="#74001d" fill-rule="evenodd" opacity=".79"/><path d="M247.53 41.59a1 1 0 0 0 .27 0 .29.29 0 0 1 .19 0 1.72 1.72 0 0 1 .88.44 2 2 0 0 1 .54.14.7.7 0 0 1 .15.14h.13c.66.23 1 1.31.4 1.57a1.3 1.3 0 0 1-.34.12.14.14 0 0 1-.27.05.46.46 0 0 0 .11-.15 2 2 0 0 0-.23-.18l-.18-.06a.16.16 0 0 1-.15.14.59.59 0 0 1-.52.2 1.16 1.16 0 0 0-.37-.08 5.57 5.57 0 0 0 .49.69 3.19 3.19 0 0 1-.66-.23 2 2 0 0 1-.62-.59 7.8 7.8 0 0 0-1.32 1.41 5.11 5.11 0 0 1-2.77 1.81 15.28 15.28 0 0 1-3.29 2.26 42.37 42.37 0 0 1-3.61 2.72 14.8 14.8 0 0 0 1.47-2.07c.54-.39 1.08-.87 1.63-1.3a20.46 20.46 0 0 0 3.5-2.28 1.61 1.61 0 0 0 .54-.1 4.56 4.56 0 0 0 .67-.2 7.57 7.57 0 0 0 .77-.45c.24-.25.58-.47.82-.72a7.09 7.09 0 0 1 1-.88 2.07 2.07 0 0 1 .53-.34v-.06a3.83 3.83 0 0 1-.42-.33 1.06 1.06 0 0 1 .66-1.63zm.65.65c-.43-.05-.79.25-.59.51a.44.44 0 0 1 .12.09l.12-.05-.06-.12v-.08h.18a.87.87 0 0 1 .15-.28zm1.61 1.27s-.13 0-.12-.09a.91.91 0 0 1 .05.26zm-22.65 10.35l-.32.85-.06.17zm8.98-13.27a3.77 3.77 0 0 0-.54.63 11.76 11.76 0 0 0-2 3c-1.14 1.56-2.4 3.08-3.49 4.52-.36.83-.81 1.77-1.16 2.7a28.34 28.34 0 0 1 2.31-3 1 1 0 0 0 .22-.31 21 21 0 0 0 2-2.33c.29-.38.66-.82 1-1.27a8.79 8.79 0 0 1 1-1.94 22.19 22.19 0 0 1 4.31-4.43 14.43 14.43 0 0 0 1.78-1.82 4.49 4.49 0 0 1 .56-.43 4.74 4.74 0 0 1 1.55-.8.08.08 0 0 1 .12-.05 2.81 2.81 0 0 1 .61-.17 3 3 0 0 1 .44-.23.15.15 0 0 1-.07-.07c-.1 0-.2.12-.36.16a1.79 1.79 0 0 0-.31 0 6.38 6.38 0 0 0-2.91 1.25c-1.04 1.44-3.21 2.7-5.06 4.59zm-9.33 15.92a4.19 4.19 0 0 1 0-.42.23.23 0 0 0-.09.11l-.09.25-.1.25a.26.26 0 0 0 .16 0zm-.26.42c0 .13 0 .18-.05.27a1.6 1.6 0 0 0 .26-.43h-.13zm-.39.64v-.13zm21.04-23.24a2.25 2.25 0 0 1 .57.34 1.09 1.09 0 0 1-1 .56c0 .08-.07.07-.11.15-.19-.16-.45-.25-.87-.58a1.58 1.58 0 0 1-.62-.21.33.33 0 0 0 0-.24c.16.24.32.35.26.23a1.13 1.13 0 0 1 .17-.71.47.47 0 0 1 .34 0 3.67 3.67 0 0 1 1 .23.6.6 0 0 1 .2.4c0 .1.1 0 .12-.2zm-.33.08v.09l.08-.07z" fill="#74001d" fill-rule="evenodd" opacity=".79"/><path d="M240.85 35.01l.3.39a3 3 0 0 1 0 .38 1.32 1.32 0 0 1-.62 1 1.49 1.49 0 0 0-.33.08 2 2 0 0 1-2.15-.64l-.06-.12a1.22 1.22 0 0 1 .54-.77.9.9 0 0 1 .46-.17 1.24 1.24 0 0 1 1.49.41c.12.09.11-.3-.12-.61a1.24 1.24 0 0 1 .45.25v-.19zm-1.54 1.71c0 .06.07.07 0 .06s.07.02 0-.05zm-11.29 16.92c-.24.63-.47 1.12-.71 1.62a9 9 0 0 1-.3 1.33h.1c.19-.51.37-1.25.71-2.28.07-.17.12-.46.2-.67zM237.74 36zm-11.1 21.03c.14.14.3 0 .39-.25l-.12.05c-.06.17-.09.26-.27.2zM231.17 45c-.31.42-.59.9-.88 1.27l-.61 1.22a10.45 10.45 0 0 0-.7 1.47l-.63 1.69a13.86 13.86 0 0 1 1.86-3.08 18.36 18.36 0 0 1 .74-1.7s-.09.49-.29 1.43a1.86 1.86 0 0 0 .26-.43c.12-.2.25-.39.39-.63h.1a6.24 6.24 0 0 1 .57-.85c.14-.9.42-1.76.61-2.55a13 13 0 0 1 3.37-5.52 8 8 0 0 1 1.69-1.18.12.12 0 0 0 0-.16 6.92 6.92 0 0 0-2 1l-.67.58a12 12 0 0 0-1.82 2.33 14.5 14.5 0 0 0-1.99 5.11zm11.06-1.22a.56.56 0 0 1-.15.52 1 1 0 0 1-.39.25 1 1 0 0 1-1.53 0s-.06-.11-.1-.13.16-1.09.75-1.08c.41-.43.94.42 1.07.46s0 .06 0 0a1.28 1.28 0 0 0 0-.68 1.33 1.33 0 0 1 .38.7zm-1.49-.13s-.08.07-.12.05a.17.17 0 0 1 .12.09h.06a.11.11 0 0 0 0-.16zm.21-.17a.18.18 0 0 0 .12.09v-.06z" fill="#74001d" fill-rule="evenodd" opacity=".79"/><path d="M251.61 36.99a.7.7 0 0 1-.52-.47 3.08 3.08 0 0 1-.34.36 4.06 4.06 0 0 1-.61.7c-.26.29-.62.6-1 1-.08.07-.17.18-.24.25-.86 1.09-1.77 2.59-3 4.14-.17.18-.35.4-.58.61a3.12 3.12 0 0 1-.63.74l-.78.88c-2.57 2.07-5.6 3.37-6.91 4.88a4.52 4.52 0 0 1-1.06.69c0 .13-.14.24-.19.36a8.16 8.16 0 0 1-.59.89.81.81 0 0 1 .23-.21c-.33.36-.7.67-1.08 1s-.61.7-.91 1c-.57.33-1 .62-1.34.78a4.73 4.73 0 0 0-.74.51.9.9 0 0 1 .33-.36c.27-.19.63-.5 1.12-.86a8.09 8.09 0 0 1-1.1.53c-1.26.71-2.09 1.33-2.06 1.25a14.46 14.46 0 0 1 1.85-1.61 8.83 8.83 0 0 0 3.29-2.92 2.66 2.66 0 0 0-1 .12c-.1-.13.43-.09 1.16-.32a6.51 6.51 0 0 0 .38-.87c1-2.12 2.68-3.56 3.41-4.84a4.42 4.42 0 0 1 1.11-1 .6.6 0 0 0-.07-.21 1.12 1.12 0 0 1-.21-1.17l.08-.21a1.15 1.15 0 0 1 1.19-.26.34.34 0 0 0 .15.15 3.4 3.4 0 0 0-.51 0 1.12 1.12 0 0 0-.49 1.83c-.23.21-.44.52-.7.81a.65.65 0 0 1-.18.22 10.33 10.33 0 0 1-.47 1c-.39.63-.88 1.27-1.36 2a6.12 6.12 0 0 0-.45.66c-.2.41-.45.8-.65 1.21.21-.16.42-.33.65-.54 1.32-1.79 4-3.11 6.59-5.22 2.19-2.11 3.91-4.71 5.39-6.25a19.62 19.62 0 0 0 2.18-1.83 1.49 1.49 0 0 1 .06-.83.77.77 0 0 1 .18-.61.64.64 0 0 0 0 .47c-.11.44.2.93.22.74a.88.88 0 0 1 .84-.76c.66.23.85.39.51.37.06.11.2.4.57 0v.28a.72.72 0 0 1-.61.84 1.24 1.24 0 0 1-.35.12.18.18 0 0 1-.15 0 .65.65 0 0 1-.67.06zm.11-.44l.39-.63-.39.63zm.77-.6h-.09a.36.36 0 0 0-.15 0 .16.16 0 0 1 .07.07.24.24 0 0 0 .15 0zm-.89.65zm-29.55 6.24c.03.03.03.03 0 0z" fill="#74001d" fill-rule="evenodd" opacity=".79"/><path d="M219.4 42.14a.75.75 0 0 0 .09-.19.22.22 0 0 1 .1-.11 1.4 1.4 0 0 1 .71-.36 1.55 1.55 0 0 1 .35-.28.62.62 0 0 1 .17 0l.09-.06c.46-.32 1.4-.07 1.28.46a.93.93 0 0 1-.07.27c.07.09 0 .19-.09.2a.37.37 0 0 0-.06-.14 1.67 1.67 0 0 0-.23.07l-.12.09a.12.12 0 0 1 0 .16.43.43 0 0 1-.1.43.89.89 0 0 0-.22.2 5 5 0 0 0 .7 0 2.53 2.53 0 0 1-.46.32 1.74 1.74 0 0 1-.7.13 6 6 0 0 0 .37 1.48 3.77 3.77 0 0 1 0 2.6 11.27 11.27 0 0 1 .07 3.12 31.39 31.39 0 0 1 .24 3.54 11.62 11.62 0 0 0-.77-1.88c0-.52-.12-1.08-.16-1.63a15.07 15.07 0 0 0 0-3.27 1.17 1.17 0 0 0 .17-.39 3.28 3.28 0 0 0 .17-.52 5.48 5.48 0 0 0 0-.69c-.06-.27-.06-.58-.13-.85a5.33 5.33 0 0 1-.15-1.06 1.53 1.53 0 0 1 0-.49h-.05a3.21 3.21 0 0 1-.43.12.87.87 0 0 1-.83-1.17zm.75-.12c-.23.25-.19.62.09.61a.37.37 0 0 1 .11 0v-.1h-.11v-.21a.7.7 0 0 1-.13-.23zm1.62-.45s-.09.06-.11 0a.8.8 0 0 1 .2.08zm-3.15 19.2l.44.59.09.12zm-5.15-11.76a2.91 2.91 0 0 0 .19.63 9.28 9.28 0 0 0 1.18 2.62c.57 1.44 1 2.94 1.55 4.29.41.61.86 1.33 1.35 2a22.16 22.16 0 0 1-1-2.83.8.8 0 0 0-.12-.28 16.16 16.16 0 0 0-.72-2.32c-.13-.36-.27-.79-.42-1.23a7.09 7.09 0 0 1-.88-1.54 16.87 16.87 0 0 1-1.12-4.77 11 11 0 0 0-.46-2 3.39 3.39 0 0 1 0-.55 3.47 3.47 0 0 1 .15-1.35v-.1a2 2 0 0 1 .16-.47 2.18 2.18 0 0 1 0-.38.13.13 0 0 1-.08 0c0 .07 0 .18-.05.3a1.31 1.31 0 0 0-.12.22 4.63 4.63 0 0 0-.46 2.42c.5 1.34.38 3.29.85 5.34zm6.83 13.19c-.07 0-.19-.13-.29-.2a.18.18 0 0 0 0 .11l.13.18.13.18a.2.2 0 0 0 0-.12zm.16.38c.07.09.12.1.16.15a1.28 1.28 0 0 0-.18-.36l-.09.06zm.29.56l-.07-.09zm-6.58-24a1.85 1.85 0 0 1 .5-.21.8.8 0 0 1-.07.9c0 .06 0 .08.06.14-.2 0-.38.18-.81.29a1.24 1.24 0 0 1-.43.3.3.3 0 0 0-.17-.1c.24 0 .39 0 .28-.06a1 1 0 0 1-.42-.43.35.35 0 0 1 .17-.21 2.84 2.84 0 0 1 .6-.51.54.54 0 0 1 .37.06c.07 0 0-.07-.08-.17zm-.1.24v.06-.08z" fill="#74001d" fill-rule="evenodd" opacity=".79"/><path d="M211.75 43.45h.41a2.7 2.7 0 0 1 .27.17 1.05 1.05 0 0 1 .4.84 1.08 1.08 0 0 0-.1.24 1.59 1.59 0 0 1-1.43 1.08h-.11a1 1 0 0 1-.29-.69.65.65 0 0 1 .09-.38 1 1 0 0 1 1-.76c.11 0-.16-.21-.48-.2a1 1 0 0 1 .38-.18c.05 0 0 0-.12-.1zm.49 1.76h.05s.04-.01-.05 0zm6.63 14.93c.33.44.57.81.8 1.19a7.69 7.69 0 0 1 .79.79c.06 0 0-.07 0-.07-.27-.35-.7-.81-1.27-1.49-.05-.15-.21-.31-.32-.42zm-7.85-14.26zm9.58 16.65c.17 0 .14-.19 0-.36v.1c.08.11.12.17 0 .26zm-6.32-8.39c.15.39.36.78.49 1.14l.57.94a8.58 8.58 0 0 0 .71 1.12l.89 1.17a11 11 0 0 1-1.3-2.59 15 15 0 0 1-.85-1.25s.31.28.86.83a1.48 1.48 0 0 0-.18-.37l-.26-.53c.06 0 0-.07 0-.07a4.9 4.9 0 0 1-.34-.75c-.57-.5-1-1.07-1.5-1.55a10.35 10.35 0 0 1-2.3-4.66 5.87 5.87 0 0 1-.05-1.62.11.11 0 0 0-.13 0 5 5 0 0 0-.18 1.74c0 .24.06.45.1.69a9.32 9.32 0 0 0 .79 2.22 12 12 0 0 0 2.68 3.54zm4.25-7.59a.47.47 0 0 1 .3.33.74.74 0 0 1 0 .36.78.78 0 0 1-.73 1h-.13c-.02 0-.69-.6-.41-1-.11-.46.72-.41.81-.47s.05 0 0 0a1.14 1.14 0 0 0-.49-.28 1.19 1.19 0 0 1 .66.08zm-.77.89v.1a.15.15 0 0 1 .11 0v-.05a.1.1 0 0 0-.13 0zm0-.21a.15.15 0 0 0 .11 0h-.05z" fill="#74001d" fill-rule="evenodd" opacity=".79"/><path d="M218.05 37.48a.6.6 0 0 1-.56.12 2.36 2.36 0 0 1 .1.38 3.14 3.14 0 0 1 .21.71c.09.3.13.67.23 1 0 .08.05.19.06.27.37 1 1 2.31 1.53 3.76 0 .19.12.41.16.65a2.4 2.4 0 0 1 .23.74l.26.89c.27 2.59-.21 5.11.24 6.63a3.33 3.33 0 0 1 0 1c.07.09.1.2.17.29a6.45 6.45 0 0 1 .36.78.6.6 0 0 1 0-.24c.1.38.15.75.21 1.15s.21.71.26 1c0 .52 0 .91-.07 1.21a3.48 3.48 0 0 0 0 .7.69.69 0 0 1-.1-.38c0-.26-.06-.63-.09-1.1a5.84 5.84 0 0 1-.13.94c-.08 1.13 0 1.94-.07 1.88a10.87 10.87 0 0 1-.27-1.91 6.63 6.63 0 0 0-.53-3.43 1.94 1.94 0 0 0-.39.72 2.09 2.09 0 0 1 .31-.89 5.34 5.34 0 0 0-.44-.64c-1-1.63-1.25-3.33-1.81-4.38a3.32 3.32 0 0 1-.16-1.14.52.52 0 0 0-.18-.05 1 1 0 0 1-.91-.4l-.11-.15a.84.84 0 0 1 .36-.88.29.29 0 0 0 .17 0 2.52 2.52 0 0 0-.22.33.94.94 0 0 0 1.05 1.15c0 .24.16.52.24.81a.5.5 0 0 1 .07.22 8.46 8.46 0 0 1 .47.75c.26.53.48 1.14.78 1.78a4.87 4.87 0 0 0 .25.58c.19.31.35.65.54 1 0-.21 0-.42-.08-.66-.64-1.65-.33-4-.63-6.58-.47-2.36-1.49-4.64-1.89-6.29a14.64 14.64 0 0 0-.28-2.22 1.3 1.3 0 0 1-.55-.42.64.64 0 0 1-.34-.39.56.56 0 0 0 .31.23c.25.27.74.29.62.2a.67.67 0 0 1-.15-.88c.46-.32.66-.37.49-.16.11 0 .37.06.23-.38 0 .06.15.08.19.13.43.33.41.61.3.77a.91.91 0 0 1-.07.28.13.13 0 0 1-.07.09.48.48 0 0 1-.27.45zm-.25-.27l-.26-.53.26.53zm-.06-.76h-.06a.27.27 0 0 0-.07.09.14.14 0 0 1 .08 0 .18.18 0 0 0 .07-.09zm0 .86zm46.3 18.83l-.19-.54a3.34 3.34 0 0 0-.34-.25 1.22 1.22 0 0 0-1.2 0 1.55 1.55 0 0 1-.24.27 2.49 2.49 0 0 0-.54 2.52l.07.13a1.12 1.12 0 0 0 1 0 .89.89 0 0 0 .4-.34 1.54 1.54 0 0 0 .4-1.72c0-.17.32.08.48.5a1.62 1.62 0 0 0 0-.6c0-.06 0 0 .18.1zm-2.33.43v-.06c-.02-.02-.02-.02.01.1zm-.18 2.04v-.07a.05.05 0 0 1 0 .07zM220.3 27.22l-.19-.54a3.26 3.26 0 0 0-.34-.25 1.22 1.22 0 0 0-1.19 0 1.54 1.54 0 0 1-.24.27 2.5 2.5 0 0 0-.55 2.51l.07.13a1.12 1.12 0 0 0 1 0 .89.89 0 0 0 .4-.34 1.54 1.54 0 0 0 .4-1.72c0-.17.32.08.48.5a1.62 1.62 0 0 0 0-.6c0-.06 0 0 .18.1zm-2.33.43v-.06c-.02-.06-.02-.06 0 .06zm-.16 1.99v-.05a.05.05 0 0 1 0 .05z" fill="#74001d" fill-rule="evenodd" opacity=".79"/></svg>